<svg xmlns="http://www.w3.org/2000/svg" xmlns:xlink="http://www.w3.org/1999/xlink" width="500" zoomAndPan="magnify" viewBox="0 0 375 374.999991" height="500" preserveAspectRatio="xMidYMid meet" version="1.0"><defs><g/></defs><g fill="#ffffff" fill-opacity="1"><g transform="translate(55.650586, 262.499983)"><g><path d="M 140.046875 0 L 141.5 -58.59375 L 135.640625 -58.59375 L 130.671875 -38.96875 C 125.984375 -21 118.171875 -10.742188 107.234375 -8.203125 C 104.890625 -7.816406 102.640625 -7.625 100.484375 -7.625 L 60.359375 -7.625 L 60.359375 -168.171875 L 84.96875 -168.171875 L 84.96875 -175.78125 L 11.71875 -175.78125 L 11.71875 -168.171875 L 35.15625 -168.171875 L 35.15625 -7.625 L 11.71875 -7.625 L 11.71875 0 Z M 140.046875 0 "/></g></g></g><g fill="#ffffff" fill-opacity="1"><g transform="translate(151.184176, 262.499983)"><g><path d="M 123.640625 0 C 123.640625 -4.300781 122.078125 -6.742188 118.953125 -7.328125 C 117.972656 -7.523438 116.992188 -7.625 116.015625 -7.625 L 96.09375 -7.625 L 96.09375 -168.171875 L 113.09375 -168.171875 C 128.90625 -168.171875 139.453125 -158.597656 144.734375 -139.453125 C 144.734375 -138.671875 144.828125 -138.085938 145.015625 -137.703125 L 149.703125 -118.0625 L 157.90625 -118.0625 L 156.453125 -175.78125 L 11.71875 -175.78125 L 10.25 -118.0625 L 18.453125 -118.0625 L 23.140625 -137.703125 C 29.390625 -156.835938 40.035156 -166.992188 55.078125 -168.171875 L 70.90625 -168.171875 L 70.90625 -7.625 L 43.0625 -7.625 L 43.0625 0 Z M 123.640625 0 "/></g></g></g></svg>